<svg width="1080" height="1080" viewBox="0 0 1080 1080" fill="none" xmlns="http://www.w3.org/2000/svg">
<rect width="1080" height="1080" rx="540" fill="white"/>
<path d="M496.802 356.764L550.814 647.832L614.246 323.999H806.786C840.509 323.999 866.756 332.059 885.526 348.18C907.16 366.78 917.978 395.302 917.978 433.743C917.977 469.084 906.683 495.435 884.095 512.796C880.595 515.276 867.55 521.321 844.963 530.931C869.46 538.991 883.935 544.572 888.39 547.672C913.523 565.963 926.09 596.808 926.09 640.21C926.09 684.541 910.819 716.008 880.277 734.608C856.735 748.869 823.011 755.999 779.107 755.999H626.398V713.78L614.914 755.999H480.707L389.9 410.399H367.202V755.999H280.802V410.399H151.202V323.999H496.802V356.764ZM719.455 688.106H768.608C789.288 688.106 804.4 684.232 813.944 676.481C826.352 666.561 832.556 649.045 832.556 623.935C832.556 608.744 828.579 595.569 820.625 584.408C811.717 572.008 800.105 565.808 785.788 565.808H719.455V688.106ZM719.455 499.775H781.493C795.173 499.775 806.468 494.349 815.376 483.499C824.602 472.339 829.215 459.474 829.215 444.903C829.215 428.163 824.92 415.142 816.33 405.842C806.468 394.992 791.356 389.566 770.995 389.566H719.455V499.775Z" fill="#0B0B0B"/>
</svg>
